<svg width="871" height="871" viewBox="0 0 871 871" fill="none" xmlns="http://www.w3.org/2000/svg">
<path d="M692.944 424.25C692.944 423.903 692.944 423.552 692.944 423.173C692.829 403.117 685.674 385.823 671.367 371.559C671.339 371.531 671.311 371.499 671.28 371.471C670.194 370.394 669.108 369.317 668.019 368.241C645.297 345.677 622.606 323.089 599.772 300.702C597.424 298.401 595.05 296.071 592.704 293.773C590.241 291.386 587.78 288.968 585.347 286.581C584.805 286.057 584.289 285.564 583.746 285.069C571.928 274.152 558.136 267.834 542.026 266.669C539.736 266.496 537.418 266.436 535.041 266.496C521.02 266.758 507.029 266.609 493.007 266.524C479.042 266.524 465.107 266.436 451.141 266.758C449.825 266.786 448.625 266.758 447.508 266.669C447.365 266.669 447.191 266.641 447.048 266.609C440.238 265.912 437.178 262.71 436.517 256.188C436.406 255.023 436.347 253.773 436.375 252.406C436.691 232.144 436.461 211.882 436.375 191.589C436.375 188.883 436.347 186.582 436.232 184.634C436.176 183.848 436.117 183.118 436.033 182.421C435.118 174.414 431.596 174.035 417.947 174.064C394.452 174.064 370.989 174.298 347.494 174.064C345.35 174.064 343.203 174.035 341.056 174.007C336.107 173.947 331.356 174.269 326.749 174.967C313.413 177.006 301.482 182.275 290.864 190.919C290.864 190.919 290.864 190.919 290.809 190.951C288.661 192.697 286.573 194.588 284.541 196.599C283.281 197.849 281.993 199.102 280.734 200.381C256.87 224.138 233.149 248.037 208.968 271.443C206.849 273.482 204.733 275.519 202.614 277.586C194.059 285.795 187.847 294.792 183.814 304.601C183.814 304.661 183.786 304.69 183.758 304.746C180.636 312.345 178.834 320.469 178.235 329.144C178.061 331.676 177.977 334.236 178.005 336.857C178.319 373.248 178.235 409.636 178.061 446.027C178.061 448.092 178.12 450.131 178.235 452.139C179.122 465.85 183.184 478.283 190.482 489.317C192.772 492.897 195.316 496.272 198.121 499.416L206.877 508.063C229.912 531.119 253.177 553.973 276.415 576.827C278.732 579.097 281.022 581.367 283.34 583.636C283.539 583.842 283.712 584.015 283.911 584.22C290.377 590.595 297.39 595.573 305.001 599.182C305.029 599.182 305.06 599.213 305.116 599.242C307.148 600.201 309.264 601.076 311.383 601.834C315.417 603.027 319.339 604.249 323.488 604.946C332.644 606.462 342.03 605.878 351.245 605.878C360.774 605.878 370.272 605.878 379.804 605.878C389.333 605.878 398.83 605.878 408.362 605.878H420.494C422.84 605.878 425.245 605.878 427.504 606.547C429.793 607.216 431.224 608.498 432.626 610.304C434.088 612.195 435.003 614.058 435.003 616.533V688.498C435.003 693.359 439.837 697.056 444.33 697.492C451.169 698.193 458.38 697.552 465.277 697.58C479.529 697.609 493.749 697.64 508 697.669C522.565 697.697 537.989 699.181 552.24 695.629C563.429 692.864 573.644 687.304 582.403 679.967C584.606 678.133 586.75 676.154 588.869 674.029C589.325 673.565 589.785 673.126 590.241 672.662C593.418 669.489 596.623 666.316 599.8 663.14C612.448 650.566 625.182 638.105 637.943 625.616L671.625 592.312C684.616 578.513 692.659 560.116 693 539.883V426.785C693 426.346 693 425.911 693 425.475C693 425.036 693 424.6 693 424.165L692.944 424.25ZM434.829 279.8C434.544 301.457 434.746 323.117 434.687 344.775C434.687 344.951 434.687 345.097 434.687 345.27C434.631 348.822 434.088 351.761 432.512 354.034C431.655 355.284 430.51 356.333 428.965 357.147C427.448 357.965 425.586 358.574 423.268 358.981C388.445 364.98 363.834 387.979 357.997 418.747C355.85 430.103 355.679 440.875 357.426 450.889C357.827 453.131 358.314 455.372 358.912 457.585C359.514 459.767 360.2 461.951 361.001 464.076C361.804 466.201 362.692 468.269 363.663 470.305C364.665 472.344 365.723 474.324 366.924 476.275C368.1 478.223 369.388 480.117 370.759 481.98C372.134 483.842 373.623 485.648 375.168 487.394C376.713 489.14 378.401 490.889 380.145 492.518C381.92 494.178 383.751 495.779 385.668 497.32C387.586 498.835 389.674 500.379 391.765 501.806C394.654 503.754 397.657 505.616 400.748 507.249C401.722 507.773 402.78 508.123 403.696 508.676C404.298 509.023 404.726 509.607 404.899 510.276C404.955 510.478 404.955 510.655 404.955 510.857C404.955 511.119 404.927 511.353 404.841 511.615C404.527 512.663 403.525 513.421 402.352 513.421H345.893C327.006 513.421 308.15 513.421 289.263 513.421H287.575C285.658 513.421 283.712 513.537 281.823 513.361C277.789 513.013 274.41 510.276 273.181 506.608C272.493 504.54 272.524 502.387 272.524 500.234V496.448C272.524 494.178 272.524 491.905 272.552 489.636C272.552 487.628 272.552 485.62 272.552 483.64C272.635 459.565 272.694 435.489 272.722 411.442C272.722 397.554 272.722 383.641 272.722 369.725C272.722 355.606 272.694 341.485 272.635 327.395C272.635 313.45 272.552 299.537 272.493 285.593C272.493 281.953 272.009 278.082 273.15 274.587C274.497 270.512 278.388 267.572 282.968 267.572C289.263 267.572 295.528 267.572 301.824 267.572H398.089C402.808 267.572 407.503 267.572 412.225 267.572C414.171 267.572 416.116 267.572 418.062 267.572C420.007 267.572 421.869 267.484 423.755 267.629C425.844 267.774 427.649 268.125 429.164 268.737C431.54 269.725 433.2 271.386 434.088 274.035C434.516 275.345 434.774 276.889 434.829 278.691C434.829 279.07 434.829 279.477 434.829 279.885V279.8ZM599.686 592.4C599.686 592.896 599.658 593.36 599.599 593.827C599.056 600.931 596.108 604.103 589.871 605.006H589.84C588.41 605.208 586.781 605.297 584.978 605.297C579.939 605.268 574.875 605.209 569.84 605.18C555.045 605.092 540.251 605.035 525.457 605.006H502.592C485.967 605.006 469.342 605.092 452.714 605.208C451.6 605.208 450.455 605.208 449.338 605.208C447.88 605.208 446.592 605.152 445.419 604.975C441.327 604.394 438.835 602.733 437.492 599.794C436.604 597.815 436.26 595.283 436.291 592.11C436.576 570.917 436.375 549.723 436.291 528.53C436.291 525.616 436.632 523.113 437.492 521.048C438.835 517.787 441.414 515.517 445.761 514.147C446.648 513.856 447.622 513.623 448.68 513.421C459.441 511.324 469.255 507.599 477.782 502.62C497.327 491.179 510.318 472.954 513.495 451.53C513.61 450.655 513.753 449.809 513.84 448.938C515.013 439.533 514.954 430.656 513.61 422.387C513.151 419.565 512.58 416.799 511.835 414.119C509.431 405.327 505.484 397.264 500.017 389.987C492.976 380.582 483.42 372.519 471.402 365.883C470.313 365.27 469.227 364.658 468.169 364.048C468.082 364.02 467.968 363.96 467.881 363.932C467.738 363.843 467.595 363.758 467.48 363.669C467.251 363.496 467.052 363.262 466.882 363C466.652 362.621 466.509 362.154 466.509 361.69C466.509 360.291 467.651 359.127 469.085 359.127H521.851C533.983 359.127 546.115 359.186 558.251 359.127C562.055 359.127 565.862 359.098 569.669 359.07C574.531 359.041 579.396 358.981 584.261 358.924C586.008 358.924 587.554 358.953 588.953 359.127C589.012 359.127 589.068 359.127 589.127 359.127C596.052 360.001 599.112 363.379 599.599 371.325C599.599 371.647 599.627 371.938 599.627 372.285V377.44C599.627 381.021 599.599 384.601 599.571 388.181C599.456 412.373 599.369 436.566 599.341 460.758C599.341 474.965 599.341 489.171 599.341 503.375C599.369 528.151 599.456 552.896 599.571 577.67C599.571 580.931 599.599 584.161 599.627 587.422C599.627 588.587 599.627 589.752 599.627 590.917C599.627 591.409 599.627 591.905 599.627 592.372L599.686 592.4Z" fill="black"/>
</svg>
